<svg width="45" height="44" viewBox="0 0 45 44" fill="none" xmlns="http://www.w3.org/2000/svg">
<path d="M20.25 34.9356H24.75V30.5686H20.25V34.9356ZM22.5 0C10.08 0 0 9.78196 0 21.8347C0 33.8875 10.08 43.6694 22.5 43.6694C34.92 43.6694 45 33.8875 45 21.8347C45 9.78196 34.92 0 22.5 0ZM22.5 39.3025C12.5775 39.3025 4.5 31.4638 4.5 21.8347C4.5 12.2056 12.5775 4.36694 22.5 4.36694C32.4225 4.36694 40.5 12.2056 40.5 21.8347C40.5 31.4638 32.4225 39.3025 22.5 39.3025ZM22.5 8.73389C17.5275 8.73389 13.5 12.6423 13.5 17.4678H18C18 15.066 20.025 13.1008 22.5 13.1008C24.975 13.1008 27 15.066 27 17.4678C27 21.8347 20.25 21.2889 20.25 28.3851H24.75C24.75 23.4723 31.5 22.9265 31.5 17.4678C31.5 12.6423 27.4725 8.73389 22.5 8.73389Z" fill="black"/>
</svg>
